<svg width="20" height="23" viewBox="0 0 20 23" fill="none" xmlns="http://www.w3.org/2000/svg">
<path d="M11 5.22727L11 13.5909L9 13.5909L9 5.22727L6 5.22727L10 -4.37114e-07L14 5.22727L11 5.22727ZM4 4.18182L4 7.01291C2.98167 8.22008 2.31815 9.70881 2.08906 11.3004C1.85998 12.8921 2.07506 14.519 2.7085 15.986C3.34194 17.4531 4.36683 18.6978 5.66019 19.571C6.95354 20.4441 8.46042 20.9086 10 20.9086C11.5396 20.9086 13.0465 20.4441 14.3398 19.571C15.6332 18.6978 16.6581 17.4531 17.2915 15.9861C17.9249 14.519 18.14 12.8921 17.9109 11.3005C17.6819 9.70881 17.0183 8.22008 16 7.01291L16 4.18182C17.2428 5.15478 18.2515 6.41735 18.9459 7.86921C19.6402 9.32107 20.0012 10.9222 20 12.5455C20 18.3195 15.523 23 10 23C4.477 23 4.92128e-06 18.3195 5.17367e-06 12.5455C-0.00116205 10.9222 0.359777 9.32107 1.05415 7.86921C1.74852 6.41735 2.75718 5.15478 4 4.18182Z" fill="white"/>
</svg>
