<svg width="103" height="103" viewBox="0 0 103 103" fill="none" xmlns="http://www.w3.org/2000/svg">
<circle cx="51.5" cy="51.5" r="50" fill="black" stroke="#FFC107" stroke-width="3"/>
<path d="M34.4 64.82L34.42 66.36C34.3667 67.3333 34.2467 68.1533 34.06 68.82C33.8733 69.4867 33.5067 70.0933 32.96 70.64C32.0533 71.5467 30.7333 72 29 72C26.96 72 25.56 71.7333 24.8 71.2C24.04 70.6533 23.66 69.6733 23.66 68.26V57.76H29.2C30.8 57.76 32.0533 58.2133 32.96 59.12C33.6933 59.8533 34.1267 60.7467 34.26 61.8C34.3533 62.5467 34.4 63.5533 34.4 64.82ZM31.02 68.64C31.2733 68.3333 31.4333 67.9133 31.5 67.38C31.58 66.8333 31.62 65.9867 31.62 64.84C31.62 63.6933 31.58 62.8667 31.5 62.36C31.4333 61.84 31.2733 61.4267 31.02 61.12C30.54 60.5333 29.8467 60.24 28.94 60.24H26.44V68.12C26.44 68.6533 26.62 69.02 26.98 69.22C27.34 69.42 27.98 69.52 28.9 69.52C29.8333 69.52 30.54 69.2267 31.02 68.64ZM47.5836 64.82L47.6036 66.36C47.5503 67.3333 47.4303 68.1533 47.2436 68.82C47.0569 69.4867 46.6903 70.0933 46.1436 70.64C45.2369 71.5467 43.9169 72 42.1836 72C40.1436 72 38.7436 71.7333 37.9836 71.2C37.2236 70.6533 36.8436 69.6733 36.8436 68.26V57.76H42.3836C43.9836 57.76 45.2369 58.2133 46.1436 59.12C46.8769 59.8533 47.3103 60.7467 47.4436 61.8C47.5369 62.5467 47.5836 63.5533 47.5836 64.82ZM44.2036 68.64C44.4569 68.3333 44.6169 67.9133 44.6836 67.38C44.7636 66.8333 44.8036 65.9867 44.8036 64.84C44.8036 63.6933 44.7636 62.8667 44.6836 62.36C44.6169 61.84 44.4569 61.4267 44.2036 61.12C43.7236 60.5333 43.0303 60.24 42.1236 60.24H39.6236V68.12C39.6236 68.6533 39.8036 69.02 40.1636 69.22C40.5236 69.42 41.1636 69.52 42.0836 69.52C43.0169 69.52 43.7236 69.2267 44.2036 68.64ZM60.8272 72H57.9272L57.1272 69.54H52.3472L51.5672 72H48.6672L53.2272 58.96C53.4272 58.5067 53.6472 58.1933 53.8872 58.02C54.1405 57.8467 54.4472 57.76 54.8072 57.76C55.1672 57.76 55.4539 57.84 55.6672 58C55.8939 58.16 56.0939 58.48 56.2672 58.96L60.8272 72ZM56.4872 67.2L54.8072 61.56L53.0472 67.2H56.4872ZM72.0411 60.24H68.2211V72H65.4411V60.24H61.6411V57.76H72.0411V60.24ZM83.5869 72H78.5469C76.9469 72 75.8202 71.7267 75.1669 71.18C74.5269 70.62 74.2069 69.64 74.2069 68.24V57.76H83.5869V60.24H76.9869V63.58H81.6069L81.4069 66.06H76.9869V68.04C76.9869 68.6 77.1135 68.9867 77.3669 69.2C77.6202 69.4133 78.0802 69.52 78.7469 69.52H83.5869V72Z" fill="#FFC107"/>
<path d="M54 51.4413V25.9413C66.4 20.3413 68.8333 28.1086 68 33.4419C67.2 38.2419 58 47.9413 54 51.4413Z" stroke="#FFC107" stroke-width="3"/>
<path d="M50.1475 51.4413V25.9413C37.7475 20.3413 35.3141 28.1086 36.1475 33.4419C36.9475 38.2419 46.1475 47.9413 50.1475 51.4413Z" stroke="#FFC107" stroke-width="3"/>
</svg>
