<svg width="750" height="214" viewBox="0 0 750 214" fill="none" xmlns="http://www.w3.org/2000/svg">
<rect opacity="0.3" x="113.424" y="185.791" width="19.9467" height="19.9467" transform="rotate(45 113.424 185.791)" fill="#C2839E"/>
<path d="M0.585205 73.6648L70.3986 143.478L112.718 101.165L154.989 143.478L183.356 115.46L160.159 93.6114L201.542 51.0434L160.897 13.7473L110.292 63.6914L60.4252 13.8248L0.585205 73.6648Z" fill="#C2839E"/>
<rect x="84.5029" y="129.374" width="19.9467" height="19.9467" transform="rotate(45 84.5029 129.374)" fill="#C2839E"/>
<rect opacity="0.6" x="98.6074" y="143.478" width="19.9467" height="19.9467" transform="rotate(45 98.6074 143.478)" fill="#C2839E"/>
<rect opacity="0.4" x="112.712" y="157.583" width="19.9467" height="19.9467" transform="rotate(45 112.712 157.583)" fill="#C2839E"/>
<rect opacity="0.7" x="98.6074" y="115.269" width="19.9467" height="19.9467" transform="rotate(45 98.6074 115.269)" fill="#C2839E"/>
<rect opacity="0.3" x="112.712" y="129.374" width="19.9467" height="19.9467" transform="rotate(45 112.712 129.374)" fill="#C2839E"/>
<rect opacity="0.8" x="112.712" y="101.165" width="19.9467" height="19.9467" transform="rotate(45 112.712 101.165)" fill="#C2839E"/>
<rect opacity="0.7" x="126.816" y="115.269" width="19.9467" height="19.9467" transform="rotate(45 126.816 115.269)" fill="#C2839E"/>
<rect opacity="0.7" x="159.92" y="93.8896" width="19.9467" height="19.9467" transform="rotate(-46.2463 159.92 93.8896)" fill="#C2839E"/>
<rect opacity="0.3" x="174.021" y="107.467" width="19.9467" height="19.9467" transform="rotate(-46.2463 174.021 107.467)" fill="#C2839E"/>
<rect opacity="0.6" x="140.921" y="129.374" width="19.9467" height="19.9467" transform="rotate(45 140.921 129.374)" fill="#C2839E"/>
<rect opacity="0.1" x="126.816" y="143.478" width="19.9467" height="19.9467" transform="rotate(45 126.816 143.478)" fill="#C2839E"/>
<rect opacity="0.8" x="169.13" y="129.374" width="19.9467" height="19.9467" transform="rotate(45 169.13 129.374)" fill="#C2839E"/>
<rect opacity="0.1" x="146.535" width="19.9467" height="19.9467" transform="rotate(43.5675 146.535 0)" fill="#C2839E"/>
<rect x="126.816" y="115.269" width="19.9467" height="19.9467" transform="rotate(45 126.816 115.269)" fill="#C2839E"/>
<rect opacity="0.3" x="173.715" y="79.4817" width="19.9467" height="19.9467" transform="rotate(-46.2463 173.715 79.4817)" fill="#C2839E"/>
<rect opacity="0.1" x="187.509" y="65.074" width="19.9467" height="19.9467" transform="rotate(-46.2463 187.509 65.074)" fill="#C2839E"/>
<path d="M275.726 143.565V143.317C277.706 139.481 278.448 135.521 278.448 127.725V64.7375C278.448 58.9214 275.726 55.7039 272.879 53.3527V53.1052L287.482 47.1653V127.601C287.482 135.398 287.853 139.481 290.204 143.317V143.565H275.726ZM329.687 145.421C312.733 145.421 298.626 131.314 298.626 114.237C298.626 97.1595 312.981 82.8047 329.687 82.8047C346.64 82.8047 360.747 97.1595 360.747 114.237C360.747 131.314 346.64 145.421 329.687 145.421ZM329.687 143.07C343.67 143.07 350.352 129.581 350.352 114.237C350.352 98.7682 343.546 85.1559 329.687 85.1559C315.827 85.1559 309.021 98.7682 309.021 114.237C309.021 129.581 315.703 143.07 329.687 143.07ZM388.328 144.431L370.384 98.397C367.414 90.7246 365.805 87.5071 362.836 84.9084V84.6609H380.408V84.9084C378.428 87.2597 377.562 91.4671 380.036 98.0257L392.535 130.943L404.167 100.253C407.014 92.4571 405.776 87.3834 402.93 84.9084V84.6609H415.676V84.9084C411.592 88.6209 409.86 91.5908 407.137 98.892L389.565 144.431H388.328ZM466.222 128.22L466.841 128.591C463.747 138.368 455.332 145.421 443.081 145.421C426.746 145.421 415.857 132.923 415.857 115.103C415.857 95.427 429.593 82.8047 443.947 82.8047C458.302 82.8047 467.583 95.1795 466.593 106.688H425.385C425.261 107.307 425.261 108.049 425.261 108.792V110.895C425.261 127.601 433.181 137.501 447.165 137.501C454.713 137.501 461.891 134.531 466.222 128.22ZM443.452 85.0322C433.553 85.0322 427.241 92.8283 425.633 104.708L456.57 104.089V103.099C456.57 90.7246 451.991 85.0322 443.452 85.0322ZM510.101 145.05C504.821 145.05 500.201 143.895 496.242 141.585C492.364 139.193 489.353 135.851 487.208 131.561V143.565H479.536V54.4665H487.455V95.1795C489.518 90.8896 492.488 87.5896 496.365 85.2797C500.243 82.8872 504.821 81.691 510.101 81.691C515.876 81.691 521.074 83.0522 525.694 85.7747C530.313 88.4971 533.902 92.2921 536.46 97.1595C539.1 101.944 540.42 107.348 540.42 113.37C540.42 119.393 539.1 124.797 536.46 129.581C533.902 134.366 530.313 138.161 525.694 140.966C521.074 143.689 515.876 145.05 510.101 145.05ZM509.606 138.12C513.896 138.12 517.774 137.048 521.239 134.903C524.704 132.758 527.426 129.829 529.406 126.116C531.386 122.322 532.376 118.073 532.376 113.37C532.376 108.668 531.386 104.419 529.406 100.624C527.426 96.8295 524.704 93.8595 521.239 91.7146C517.774 89.5696 513.896 88.4971 509.606 88.4971C505.234 88.4971 501.315 89.5696 497.85 91.7146C494.385 93.8595 491.663 96.8295 489.683 100.624C487.785 104.419 486.837 108.668 486.837 113.37C486.837 118.073 487.785 122.322 489.683 126.116C491.663 129.829 494.385 132.758 497.85 134.903C501.315 137.048 505.234 138.12 509.606 138.12ZM550.786 167.943C548.394 167.943 545.836 167.531 543.114 166.706L543.485 159.652C545.63 160.477 548.023 160.89 550.663 160.89C554.127 160.89 556.891 159.9 558.954 157.92C561.016 155.94 563.037 152.599 565.017 147.896L567.616 141.461L539.401 83.176H548.311L571.947 133.046L592.861 83.176H601.523L573.185 148.02C570.132 155.115 566.956 160.188 563.656 163.241C560.439 166.376 556.149 167.943 550.786 167.943ZM630.09 144.679C624.563 144.679 620.314 142.946 617.344 139.481C614.457 135.934 613.013 130.736 613.013 123.889V89.8584H600.886V83.176H613.013V69.44H620.809V83.176H640.361V89.8584H620.809V123.27C620.809 128.138 621.634 131.768 623.284 134.16C625.017 136.47 627.657 137.625 631.204 137.625C634.092 137.625 636.773 137.006 639.248 135.769L640.733 142.327C638.093 143.895 634.545 144.679 630.09 144.679ZM700.48 110.772C700.48 112.587 700.356 114.113 700.108 115.35H650.114C650.362 122.445 652.507 128.138 656.549 132.428C660.674 136.718 665.995 138.863 672.513 138.863C677.38 138.863 681.587 137.625 685.135 135.15C688.765 132.593 691.116 129.128 692.189 124.755L699.118 126.488C698.046 132.18 695.035 136.8 690.085 140.347C685.217 143.812 679.36 145.545 672.513 145.545C666.573 145.545 661.293 144.184 656.673 141.461C652.136 138.739 648.588 134.944 646.031 130.076C643.473 125.209 642.194 119.64 642.194 113.37C642.194 107.266 643.473 101.779 646.031 96.912C648.588 91.9621 652.136 88.1259 656.673 85.4034C661.293 82.5985 666.449 81.196 672.141 81.196C677.586 81.196 682.454 82.4747 686.744 85.0322C691.034 87.5071 694.375 91.0133 696.767 95.5508C699.242 100.006 700.48 105.079 700.48 110.772ZM692.56 109.163C692.56 102.893 690.662 97.7782 686.867 93.8183C683.072 89.7759 678.164 87.7546 672.141 87.7546C666.119 87.7546 661.128 89.7346 657.168 93.6945C653.208 97.572 650.898 102.728 650.238 109.163H692.56Z" fill="#24221D"/>
<path d="M733.985 80.3173L728.936 66.3731L723.806 80.3173H733.985ZM722.233 92.4822V92.5649H717.185V92.4822C718.965 90.703 719.378 89.4616 720.495 86.5652L729.64 61.9043H730.633L739.901 86.979C741.101 90.2892 741.681 91.2822 743.088 92.4822V92.5649H736.509V92.4822C737.129 91.5305 737.377 89.6272 736.343 86.8135L734.274 81.1448H723.475L721.778 85.7791C720.413 89.4616 721.323 91.365 722.233 92.4822ZM743.207 92.5649V92.4822C744.572 90.3306 744.862 89.2134 744.862 86.3583V68.4833C744.862 65.6697 744.531 64.4697 743.207 62.3595V62.2767H749.91V62.3595C748.544 64.5111 748.255 65.6283 748.255 68.4833V86.3583C748.255 89.2134 748.544 90.3306 749.91 92.4822V92.5649H743.207Z" fill="#24221D"/>
</svg>
